# xmcd
#
# Track frame offsets: 
#        150
#        17665
#        33722
#        56360
#        82017
#        99567
#        116597
#        139992
#        159205
#        177442
#        198412
#        223002
#        244672
#
# Disc length: 3501 seconds
#
# Revision: 1
# Processed by: cddbd v1.5.2PL0 Copyright (c) Steve Scherf et al.
# Submitted via: ExactAudioCopy v0.95a5
#
DISCID=b20dab0d
DTITLE=ROME - k-To The Highest
DYEAR=2001
DGENRE=R&B
TTITLE0=Ride and Roll
TTITLE1=Drama
TTITLE2=Can't Believe
TTITLE3=Heaven Must Have Sent You (Presious Love)
TTITLE4=Be With You
TTITLE5=Hip Hop R&B
TTITLE6=People Of This World
TTITLE7=It's Gravy
TTITLE8=Don't Act Surprised
TTITLE9=Just Easy
TTITLE10=Yes I Will
TTITLE11=I'm Your Doctor
TTITLE12=To The Highest
EXTD=rome/to the highest
EXTT0=
EXTT1=
EXTT2=
EXTT3=
EXTT4=
EXTT5=
EXTT6=
EXTT7=
EXTT8=
EXTT9=
EXTT10=
EXTT11=
EXTT12=
PLAYORDER=
